HIERARCHY
ROOT Hips
{
  OFFSET 74.0196 97.4445 -31.1285
  CHANNELS 6 Xposition Yposition Zposition Zrotation Xrotation Yrotation
  JOINT RightUpLeg
  {
    OFFSET -8.9458 -8.66707 0.101652
    CHANNELS 3 Zrotation Xrotation Yrotation
    JOINT RightLeg
    {
      OFFSET -2.94875e-013 -44.4227 1.3727
      CHANNELS 3 Zrotation Xrotation Yrotation
      JOINT RightFoot
      {
        OFFSET 0.253549 -42.0924 -1.46059
        CHANNELS 3 Zrotation Xrotation Yrotation
        JOINT RightToes
        {
          OFFSET 0.04 -4.41509 8.4991
          CHANNELS 3 Zrotation Xrotation Yrotation
          End Site
          {
            OFFSET -0.08 -0.137448 9.77979
          }
        }
      }
    }
  }
  JOINT Spine
  {
    OFFSET -5.68434e-014 11.8905 -6.39488e-014
    CHANNELS 3 Zrotation Xrotation Yrotation
    JOINT Spine1
    {
      OFFSET 5.68434e-014 25.6574 0.127663
      CHANNELS 3 Zrotation Xrotation Yrotation
      JOINT HEad
      {
        OFFSET 4.26326e-014 8.73416 0.011341
        CHANNELS 3 Zrotation Xrotation Yrotation
        End Site
        {
          OFFSET -0.29 12.7742 2.51395
        }
      }
      JOINT LeftShoulder1
      {
        OFFSET 8.99 -0.362252 -0.22
        CHANNELS 3 Zrotation Xrotation Yrotation
        JOINT LeftArm
        {
          OFFSET 10.2827 -0.00338 0.322123
          CHANNELS 3 Zrotation Xrotation Yrotation
          JOINT LeftForeArm
          {
            OFFSET 32.7669 0.099144 -1.42434
            CHANNELS 3 Zrotation Xrotation Yrotation
            JOINT LeftHand
            {
              OFFSET 27.5643 0.085362 1.02216
              CHANNELS 3 Zrotation Xrotation Yrotation
              End Site
              {
                OFFSET 16.7443 -0.6 1.50291
              }
            }
          }
        }
      }
      JOINT RightShoulder
      {
        OFFSET -8.99 -0.362252 -0.22
        CHANNELS 3 Zrotation Xrotation Yrotation
        JOINT RightArm
        {
          OFFSET -10.2827 -0.00338 0.322123
          CHANNELS 3 Zrotation Xrotation Yrotation
          JOINT RightForeArm
          {
            OFFSET -32.8971 0.099144 -1.42434
            CHANNELS 3 Zrotation Xrotation Yrotation
            JOINT RightHand
            {
              OFFSET -27.4921 0.085362 1.02216
              CHANNELS 3 Zrotation Xrotation Yrotation
              End Site
              {
                OFFSET -16.6312 -0.6 1.50291
              }
            }
          }
        }
      }
    }
  }
  JOINT LeftUpLeg
  {
    OFFSET 8.9458 -8.66707 0.101652
    CHANNELS 3 Zrotation Xrotation Yrotation
    JOINT LeftLeg
    {
      OFFSET 7.10543e-014 -44.4227 1.3727
      CHANNELS 3 Zrotation Xrotation Yrotation
      JOINT LeftFoot
      {
        OFFSET -0.253549 -42.0924 -1.46059
        CHANNELS 3 Zrotation Xrotation Yrotation
        JOINT LeftToes
        {
          OFFSET -0.04 -4.41509 8.4991
          CHANNELS 3 Zrotation Xrotation Yrotation
          End Site
          {
            OFFSET 0.08 -0.047448 9.77979
          }
        }
      }
    }
  }
}
MOTION
Frames:	9
Frame Time:	0.0166667
-44.4338 86.6251 -76.7764 7.70455 -5.51586 72.2306 -27.4655 -21.3463 0.128802 10.6105 24.5158 0.08872 9.32259 3.74429 -1.02546 -0.865513 2.75308 -6.22062 1.02119 7.78586 -8.95143 -0.0230109 15.1028 -16.9443 3.58368 0.511661 0.362279 -5.03302e-021 -3.88251e-019 1.21329e-020 -23.4281 7.17744 -90.223 -9.18071 10.1118 -61.7314 6.54677 9.62745 -1.04006 27.266 -4.89737 -19.0939 66.516 -40.2385 27.3041 169.132 -33.5773 40.9963 73.9411 38.4772 34.7372 23.7535 0.195106 -10.9171 -22.8171 44.8383 26.2626 -2.44718 37.3166 0.724876 83.2696 -58.4505 66.9734 
-45.2832 86.9496 -78.2051 6.88623 -4.79446 71.4184 -28.1719 -21.7157 -0.370395 9.24046 21.854 0.0669025 11.7404 0.636104 -0.970561 2.80799 13.0004 -6.5585 0.602645 7.58485 -8.42053 -0.37409 14.7934 -15.8996 4.57054 -0.463251 -0.593619 -5.03302e-021 -3.88251e-019 1.21329e-020 -33.2706 9.94276 -81.3581 -9.66936 14.8598 -71.0136 6.54677 9.62745 -1.04006 27.6031 -5.4024 -20.597 65.8087 -40.4936 28.5492 166.327 -29.4101 35.72 67.4161 39.2289 40.4155 22.4588 0.800085 -10.7667 -22.6403 41.9983 26.4139 -0.0925312 34.8982 -0.193411 83.353 -58.3849 67.1105 
-46.1405 87.3834 -79.5098 6.02577 -3.93806 70.7928 -29.0434 -22.0932 -0.897142 8.33947 19.6056 -1.60786 14.2903 -2.14039 -0.829065 6.10039 21.4715 -6.80404 0.0762843 7.34789 -7.78273 -0.843648 14.4434 -14.626 5.90486 -1.6083 -2.18853 -5.03302e-021 -3.88251e-019 1.21329e-020 -43.3309 10.7531 -71.9191 -10.1813 19.934 -79.4638 6.54677 9.62745 -1.04006 27.9589 -5.88521 -21.9766 64.5728 -40.4588 29.3424 164.989 -25.5784 31.6606 62.1354 39.2889 44.7457 21.3387 0.994355 -10.4363 -22.8433 39.2623 26.2635 1.56883 31.8711 -0.751514 80.4462 -58.4438 64.3809 
-47.0173 87.9509 -80.7131 5.13984 -3.101 70.5191 -29.95 -22.5058 -1.22486 8.09989 18.2977 -4.67742 16.3252 -4.31978 -0.63093 8.52302 27.293 -6.95453 -0.315671 7.12783 -7.12116 -1.27975 14.1031 -13.2959 7.24398 -2.93253 -4.32638 -5.03302e-021 -3.88251e-019 1.21329e-020 -52.556 9.81507 -63.0363 -10.7072 24.4953 -86.2804 6.54677 9.62745 -1.04006 28.2386 -6.26655 -23.0412 62.8426 -40.3188 29.6795 164.893 -22.8513 28.7539 58.5914 38.8219 47.0861 20.511 0.735719 -9.99146 -23.2123 36.7757 25.4783 2.1959 28.5811 -0.882984 75.6301 -58.5896 59.654 
-47.9328 88.6756 -81.8634 4.25214 -2.40873 70.7113 -30.77 -23.0243 -1.13772 8.61162 18.3965 -8.39662 17.0968 -5.83401 -0.435763 9.71475 30.0386 -6.94552 -0.349042 6.98307 -6.48554 -1.55782 13.837 -12.0321 8.29837 -4.38149 -6.8748 -5.03302e-021 -3.88251e-019 1.21329e-020 -60.4712 7.72458 -55.3555 -11.2773 28.2244 -91.3193 6.54677 9.62745 -1.04006 28.3702 -6.48883 -23.6728 60.8856 -40.416 29.8118 165.528 -21.5054 26.7045 56.2741 38.0027 47.8184 20.0155 -0.00152902 -9.4757 -23.5694 34.7061 23.9362 1.71168 25.4027 -0.661746 69.7549 -58.7544 53.6166 
-48.9 89.5454 -82.9937 3.40756 -1.93495 71.4305 -31.4426 -23.6496 -0.552611 9.91272 20.0295 -12.1301 16.1728 -6.64827 -0.309761 9.60639 29.8062 -6.68947 0.0931599 6.94786 -5.90609 -1.61428 13.6974 -10.9148 8.92133 -5.82864 -9.66859 -5.03302e-021 -3.88251e-019 1.21329e-020 -66.821 5.19439 -49.1509 -11.8752 31.0773 -94.828 6.54677 9.62745 -1.04006 28.3141 -6.52675 -23.8335 59.066 -41.0647 30.1513 166.253 -21.1546 25.2797 53.9807 36.9669 48.1618 19.8505 -1.21595 -8.88259 -23.8262 33.212 21.7095 0.255933 22.6952 -0.219788 63.488 -58.8554 46.8889 
-49.9111 90.4711 -84.0821 2.68231 -1.65806 72.6794 -32.0185 -24.3097 0.401175 12.0075 23.012 -15.7169 13.6999 -6.61932 -0.290732 8.43932 27.0864 -6.18668 0.886116 7.00005 -5.4123 -1.47267 13.6927 -9.98729 9.12868 -7.10329 -12.5266 -5.03302e-021 -3.88251e-019 1.21329e-020 -71.4824 2.90825 -44.4888 -12.4389 33.1469 -97.2392 6.54677 9.62745 -1.04006 28.0558 -6.38405 -23.5462 57.7196 -42.3765 31.1785 166.35 -20.8104 24.488 50.4833 35.8624 49.6049 19.9577 -2.88181 -8.14367 -23.9832 32.4742 19.0097 -1.9066 20.7404 0.330417 57.4417 -58.8359 40.1425 
-50.9357 91.3242 -85.0876 2.14867 -1.52069 74.3531 -32.5561 -24.8382 1.45438 14.7898 26.8136 -19.2564 10.3294 -5.46457 -0.356864 6.58785 22.4847 -5.49108 1.81459 7.09302 -5.0137 -1.19087 13.7966 -9.24379 9.06278 -8.03167 -15.276 -5.03302e-021 -3.88251e-019 1.21329e-020 -73.8747 2.10842 -41.5373 -12.7229 33.6444 -99.1411 6.54677 9.62745 -1.04006 27.5869 -6.07741 -22.8534 57.1096 -44.2152 33.3695 165.131 -19.4195 24.684 45.267 34.7041 53.0269 20.2474 -4.91923 -7.18666 -24.0587 32.6428 16.186 -4.45086 19.6796 0.923957 52.1725 -58.6956 34.0711 
-51.9254 91.9828 -85.973 1.83496 -1.46212 76.1965 -33.0515 -25.1421 2.32513 17.9559 30.8861 -22.6538 6.92918 -3.044 -0.421873 4.39134 16.5378 -4.6418 2.73413 7.18963 -4.66825 -0.860443 13.9534 -8.62212 8.93138 -8.4714 -17.7724 -5.03302e-021 -3.88251e-019 1.21329e-020 -74.7901 2.35382 -40.0094 -12.8161 33.5854 -100.854 6.54677 9.62745 -1.04006 26.8838 -5.61496 -21.7612 57.3903 -46.2647 37.0872 161.996 -16.6959 26.5352 38.811 33.298 58.1698 20.6253 -7.1636 -6.03146 -24.0416 33.7456 13.7014 -7.02618 19.4317 1.52326 48.0552 -58.4478 29.2481 
